<?xml version="1.0" encoding="utf-8"?>
<!-- Generator: Adobe Illustrator 24.0.2, SVG Export Plug-In . SVG Version: 6.00 Build 0)  -->
<svg version="1.1" id="Layer_1" xmlns="http://www.w3.org/2000/svg" xmlns:xlink="http://www.w3.org/1999/xlink" x="0px" y="0px"
	 viewBox="0 0 421.58 258.33" style="enable-background:new 0 0 421.58 258.33;" xml:space="preserve">
<style type="text/css">
	.st0{fill:#EAEAEA;}
	.st1{opacity:0.4;fill:#95979A;}
	.st2{opacity:0.4;}
	.st3{fill:#95979A;}
	.st4{fill:#474747;}
</style>
<g>
	<rect class="st0" width="211.62" height="258.33"/>
	<rect y="234.06" class="st1" width="211.62" height="0.77"/>
	<rect y="97.7" class="st1" width="211.62" height="0.77"/>
	<g class="st2">
		<g>
			<circle class="st3" cx="9.31" cy="18.01" r="0.77"/>
			<path class="st3" d="M10.08,50.29c0,0.43-0.35,0.77-0.77,0.77c-0.43,0-0.77-0.35-0.77-0.77c0-0.43,0.35-0.77,0.77-0.77
				C9.74,49.52,10.08,49.86,10.08,50.29z"/>
			<path class="st3" d="M10.08,82.57c0,0.43-0.35,0.77-0.77,0.77c-0.43,0-0.77-0.35-0.77-0.77s0.35-0.77,0.77-0.77
				C9.74,81.8,10.08,82.14,10.08,82.57z"/>
			<path class="st3" d="M10.08,114.85c0,0.43-0.35,0.77-0.77,0.77c-0.43,0-0.77-0.35-0.77-0.77c0-0.43,0.35-0.77,0.77-0.77
				C9.74,114.08,10.08,114.42,10.08,114.85z"/>
			<circle class="st3" cx="9.31" cy="147.13" r="0.77"/>
			<path class="st3" d="M10.08,179.41c0,0.43-0.35,0.77-0.77,0.77c-0.43,0-0.77-0.35-0.77-0.77c0-0.43,0.35-0.77,0.77-0.77
				C9.74,178.64,10.08,178.98,10.08,179.41z"/>
			<circle class="st3" cx="9.31" cy="211.69" r="0.77"/>
			<circle class="st3" cx="9.31" cy="243.97" r="0.77"/>
		</g>
		<g>
			<path class="st3" d="M31.53,8.49c0,0.43-0.35,0.77-0.77,0.77c-0.43,0-0.77-0.35-0.77-0.77c0-0.43,0.35-0.77,0.77-0.77
				C31.18,7.72,31.53,8.06,31.53,8.49z"/>
			<circle class="st3" cx="30.75" cy="40.77" r="0.77"/>
			<path class="st3" d="M31.53,73.05c0,0.43-0.35,0.77-0.77,0.77c-0.43,0-0.77-0.35-0.77-0.77c0-0.43,0.35-0.77,0.77-0.77
				C31.18,72.28,31.53,72.62,31.53,73.05z"/>
			<circle class="st3" cx="30.75" cy="105.33" r="0.77"/>
			<path class="st3" d="M31.53,137.61c0,0.43-0.35,0.77-0.77,0.77c-0.43,0-0.77-0.35-0.77-0.77c0-0.43,0.35-0.77,0.77-0.77
				C31.18,136.84,31.53,137.18,31.53,137.61z"/>
			<circle class="st3" cx="30.75" cy="169.89" r="0.77"/>
			<circle class="st3" cx="30.75" cy="202.17" r="0.77"/>
			<circle class="st3" cx="30.75" cy="234.45" r="0.77"/>
		</g>
		<g>
			<path class="st3" d="M52.97,20.39c0,0.43-0.35,0.77-0.77,0.77s-0.77-0.35-0.77-0.77c0-0.43,0.35-0.77,0.77-0.77
				S52.97,19.96,52.97,20.39z"/>
			<path class="st3" d="M52.97,52.67c0,0.43-0.35,0.77-0.77,0.77s-0.77-0.35-0.77-0.77s0.35-0.77,0.77-0.77S52.97,52.24,52.97,52.67
				z"/>
			<path class="st3" d="M52.97,84.95c0,0.43-0.35,0.77-0.77,0.77s-0.77-0.35-0.77-0.77s0.35-0.77,0.77-0.77S52.97,84.52,52.97,84.95
				z"/>
			<path class="st3" d="M52.97,117.23c0,0.43-0.35,0.77-0.77,0.77s-0.77-0.35-0.77-0.77c0-0.43,0.35-0.77,0.77-0.77
				S52.97,116.8,52.97,117.23z"/>
			<path class="st3" d="M52.97,149.51c0,0.43-0.35,0.77-0.77,0.77s-0.77-0.35-0.77-0.77c0-0.43,0.35-0.77,0.77-0.77
				S52.97,149.08,52.97,149.51z"/>
			<path class="st3" d="M52.97,181.79c0,0.43-0.35,0.77-0.77,0.77s-0.77-0.35-0.77-0.77c0-0.43,0.35-0.77,0.77-0.77
				S52.97,181.36,52.97,181.79z"/>
			<path class="st3" d="M52.97,214.07c0,0.43-0.35,0.77-0.77,0.77s-0.77-0.35-0.77-0.77c0-0.43,0.35-0.77,0.77-0.77
				S52.97,213.64,52.97,214.07z"/>
			<path class="st3" d="M52.97,246.35c0,0.43-0.35,0.77-0.77,0.77s-0.77-0.35-0.77-0.77c0-0.43,0.35-0.77,0.77-0.77
				S52.97,245.92,52.97,246.35z"/>
		</g>
		<g>
			<circle class="st3" cx="73.64" cy="10.87" r="0.77"/>
			<path class="st3" d="M74.42,43.15c0,0.43-0.35,0.77-0.77,0.77c-0.43,0-0.77-0.35-0.77-0.77c0-0.43,0.35-0.77,0.77-0.77
				C74.07,42.38,74.42,42.72,74.42,43.15z"/>
			<circle class="st3" cx="73.64" cy="75.43" r="0.77"/>
			<path class="st3" d="M74.42,107.71c0,0.43-0.35,0.77-0.77,0.77c-0.43,0-0.77-0.35-0.77-0.77c0-0.43,0.35-0.77,0.77-0.77
				C74.07,106.94,74.42,107.28,74.42,107.71z"/>
			<circle class="st3" cx="73.64" cy="139.99" r="0.77"/>
			<circle class="st3" cx="73.64" cy="172.27" r="0.77"/>
			<circle class="st3" cx="73.64" cy="204.55" r="0.77"/>
			<circle class="st3" cx="73.64" cy="236.83" r="0.77"/>
		</g>
		<g>
			<circle class="st3" cx="95.09" cy="22.77" r="0.77"/>
			<circle class="st3" cx="95.09" cy="55.05" r="0.77"/>
			<path class="st3" d="M95.86,87.33c0,0.43-0.35,0.77-0.77,0.77s-0.77-0.35-0.77-0.77c0-0.43,0.35-0.77,0.77-0.77
				S95.86,86.9,95.86,87.33z"/>
			<circle class="st3" cx="95.09" cy="119.61" r="0.77"/>
			<circle class="st3" cx="95.09" cy="151.89" r="0.77"/>
			<circle class="st3" cx="95.09" cy="184.17" r="0.77"/>
			<path class="st3" d="M95.86,216.45c0,0.43-0.35,0.77-0.77,0.77s-0.77-0.35-0.77-0.77c0-0.43,0.35-0.77,0.77-0.77
				S95.86,216.02,95.86,216.45z"/>
			<circle class="st3" cx="95.09" cy="248.73" r="0.77"/>
		</g>
		<g>
			<circle class="st3" cx="116.53" cy="13.25" r="0.77"/>
			<circle class="st3" cx="116.53" cy="45.53" r="0.77"/>
			<circle class="st3" cx="116.53" cy="77.81" r="0.77"/>
			<circle class="st3" cx="116.53" cy="110.09" r="0.77"/>
			<circle class="st3" cx="116.53" cy="142.37" r="0.77"/>
			<path class="st3" d="M117.31,174.65c0,0.43-0.35,0.77-0.77,0.77s-0.77-0.35-0.77-0.77c0-0.43,0.35-0.77,0.77-0.77
				S117.31,174.22,117.31,174.65z"/>
			<circle class="st3" cx="116.53" cy="206.93" r="0.77"/>
			<path class="st3" d="M117.31,239.21c0,0.43-0.35,0.77-0.77,0.77s-0.77-0.35-0.77-0.77c0-0.43,0.35-0.77,0.77-0.77
				S117.31,238.78,117.31,239.21z"/>
		</g>
		<g>
			<circle class="st3" cx="137.98" cy="25.15" r="0.77"/>
			<circle class="st3" cx="137.98" cy="57.43" r="0.77"/>
			<circle class="st3" cx="137.98" cy="89.71" r="0.77"/>
			<path class="st3" d="M138.75,121.99c0,0.43-0.35,0.77-0.77,0.77c-0.43,0-0.77-0.35-0.77-0.77c0-0.43,0.35-0.77,0.77-0.77
				C138.4,121.22,138.75,121.56,138.75,121.99z"/>
			<path class="st3" d="M138.75,154.27c0,0.43-0.35,0.77-0.77,0.77c-0.43,0-0.77-0.35-0.77-0.77c0-0.43,0.35-0.77,0.77-0.77
				C138.4,153.5,138.75,153.84,138.75,154.27z"/>
			<path class="st3" d="M138.75,186.55c0,0.43-0.35,0.77-0.77,0.77c-0.43,0-0.77-0.35-0.77-0.77c0-0.43,0.35-0.77,0.77-0.77
				C138.4,185.78,138.75,186.12,138.75,186.55z"/>
			<circle class="st3" cx="137.98" cy="218.83" r="0.77"/>
			<circle class="st3" cx="137.98" cy="251.11" r="0.77"/>
		</g>
		<g>
			<path class="st3" d="M160.2,15.63c0,0.43-0.35,0.77-0.77,0.77c-0.43,0-0.77-0.35-0.77-0.77c0-0.43,0.35-0.77,0.77-0.77
				C159.85,14.86,160.2,15.2,160.2,15.63z"/>
			<circle class="st3" cx="159.42" cy="47.91" r="0.77"/>
			<circle class="st3" cx="159.42" cy="80.19" r="0.77"/>
			<circle class="st3" cx="159.42" cy="112.47" r="0.77"/>
			<path class="st3" d="M160.2,144.75c0,0.43-0.35,0.77-0.77,0.77c-0.43,0-0.77-0.35-0.77-0.77c0-0.43,0.35-0.77,0.77-0.77
				C159.85,143.98,160.2,144.32,160.2,144.75z"/>
			<circle class="st3" cx="159.42" cy="177.03" r="0.77"/>
			<path class="st3" d="M160.2,209.31c0,0.43-0.35,0.77-0.77,0.77c-0.43,0-0.77-0.35-0.77-0.77c0-0.43,0.35-0.77,0.77-0.77
				C159.85,208.54,160.2,208.88,160.2,209.31z"/>
			<circle class="st3" cx="159.42" cy="241.59" r="0.77"/>
		</g>
		<g>
			<path class="st3" d="M181.64,6.11c0,0.43-0.35,0.77-0.77,0.77c-0.43,0-0.77-0.35-0.77-0.77c0-0.43,0.35-0.77,0.77-0.77
				C181.29,5.34,181.64,5.68,181.64,6.11z"/>
			<path class="st3" d="M181.64,38.39c0,0.43-0.35,0.77-0.77,0.77c-0.43,0-0.77-0.35-0.77-0.77c0-0.43,0.35-0.77,0.77-0.77
				C181.29,37.62,181.64,37.96,181.64,38.39z"/>
			<path class="st3" d="M181.64,70.67c0,0.43-0.35,0.77-0.77,0.77c-0.43,0-0.77-0.35-0.77-0.77s0.35-0.77,0.77-0.77
				C181.29,69.9,181.64,70.24,181.64,70.67z"/>
			<path class="st3" d="M181.64,102.95c0,0.43-0.35,0.77-0.77,0.77c-0.43,0-0.77-0.35-0.77-0.77s0.35-0.77,0.77-0.77
				C181.29,102.18,181.64,102.52,181.64,102.95z"/>
			<path class="st3" d="M181.64,135.23c0,0.43-0.35,0.77-0.77,0.77c-0.43,0-0.77-0.35-0.77-0.77c0-0.43,0.35-0.77,0.77-0.77
				C181.29,134.46,181.64,134.8,181.64,135.23z"/>
			<path class="st3" d="M181.64,167.51c0,0.43-0.35,0.77-0.77,0.77c-0.43,0-0.77-0.35-0.77-0.77c0-0.43,0.35-0.77,0.77-0.77
				C181.29,166.74,181.64,167.08,181.64,167.51z"/>
			<path class="st3" d="M181.64,199.79c0,0.43-0.35,0.77-0.77,0.77c-0.43,0-0.77-0.35-0.77-0.77c0-0.43,0.35-0.77,0.77-0.77
				C181.29,199.02,181.64,199.36,181.64,199.79z"/>
			<path class="st3" d="M181.64,232.07c0,0.43-0.35,0.77-0.77,0.77c-0.43,0-0.77-0.35-0.77-0.77c0-0.43,0.35-0.77,0.77-0.77
				C181.29,231.3,181.64,231.64,181.64,232.07z"/>
		</g>
		<g>
			<path class="st3" d="M203.08,27.53c0,0.43-0.35,0.77-0.77,0.77c-0.43,0-0.77-0.35-0.77-0.77s0.35-0.77,0.77-0.77
				C202.74,26.76,203.08,27.1,203.08,27.53z"/>
			<path class="st3" d="M203.08,59.81c0,0.43-0.35,0.77-0.77,0.77c-0.43,0-0.77-0.35-0.77-0.77s0.35-0.77,0.77-0.77
				C202.74,59.04,203.08,59.38,203.08,59.81z"/>
			<circle class="st3" cx="202.31" cy="92.09" r="0.77"/>
			<circle class="st3" cx="202.31" cy="124.37" r="0.77"/>
			<circle class="st3" cx="202.31" cy="156.65" r="0.77"/>
			<circle class="st3" cx="202.31" cy="188.93" r="0.77"/>
			<circle class="st3" cx="202.31" cy="221.21" r="0.77"/>
			<path class="st3" d="M203.08,253.49c0,0.43-0.35,0.77-0.77,0.77c-0.43,0-0.77-0.35-0.77-0.77c0-0.43,0.35-0.77,0.77-0.77
				C202.74,252.72,203.08,253.06,203.08,253.49z"/>
		</g>
	</g>
</g>
<g>
	<path class="st4" d="M36.77,129.1c-0.06-1.34-0.34-2.69-1.03-3.86c-0.67-1.13-1.7-1.94-2.85-2.55c-2.01-1.07-4.39-1.42-6.64-1.31
		c-3.67,0.18-9.13,1.01-10.91,4.78c-0.27,0.57-0.41,1.19-0.39,1.81c0.02,0.59,0.17,1.17,0.39,1.72c0.49,1.18,1.31,2.19,2.15,3.14
		c0.86,0.97,1.79,1.88,2.55,2.94c0.93,1.28,1.65,2.7,2.28,4.15c0.58,1.33,1.08,2.75,2.06,3.85c0.92,1.03,2.22,1.69,3.58,1.9
		c1.35,0.2,2.75-0.05,3.94-0.73c1.06-0.61,1.79-1.62,2.31-2.7c0.55-1.14,0.89-2.36,1.2-3.58c0.38-1.48,0.75-2.97,1-4.48
		C36.68,132.5,36.85,130.79,36.77,129.1z"/>
</g>
<g>
	<path class="st4" d="M114.52,120.81c-0.19-0.49-0.46-0.93-0.83-1.3c-1.28-1.27-3.25-1.3-4.92-1.04c-3.2,0.5-7.03,0.51-9.76,2.47
		c-3.12,2.25-2.25,6.54-1.49,9.81c0.39,1.7,1.08,3.58,2.69,4.26c2.63,1.12,5.96-1.31,7.98-2.78c2.78-2.03,6.17-5.49,6.6-9.08
		C114.88,122.37,114.8,121.54,114.52,120.81z"/>
</g>
<g>
	<path class="st4" d="M130.19,76.89c-0.03-2.46-2.37-3.95-4.45-4.61c-1-0.32-2.05-0.5-3.09-0.61c-1.02-0.1-2.06-0.12-3.08-0.05
		c-0.87,0.06-1.74,0.17-2.58,0.4c-3.31,0.92-5.65,3.67-7.14,6.64c-1.01,2.02-1.99,4.06-2.75,6.19c-0.55,1.54-2.27,4.88-0.41,6.15
		c0.56,0.39,1.32,0.38,1.97,0.15c3.07-1.1,4.56-4.09,6.35-6.56c2.3-3.17,5.33-4.5,9.2-4.8c1.29-0.1,2.67,0.02,3.92-0.35
		c0.69-0.2,1.35-0.6,1.71-1.22C130.09,77.8,130.19,77.35,130.19,76.89z"/>
</g>
<g>
	<path class="st4" d="M80.23,162.18c-0.03-2.46-2.37-3.95-4.45-4.61c-1-0.32-2.05-0.5-3.09-0.61c-1.02-0.1-2.06-0.12-3.08-0.05
		c-0.87,0.06-1.74,0.17-2.58,0.4c-3.31,0.92-5.65,3.67-7.14,6.64c-1.01,2.02-1.99,4.06-2.75,6.19c-0.55,1.54-2.27,4.88-0.41,6.15
		c0.56,0.39,1.32,0.38,1.97,0.15c3.07-1.1,4.56-4.09,6.35-6.56c2.3-3.17,5.33-4.5,9.2-4.8c1.29-0.1,2.67,0.02,3.92-0.35
		c0.69-0.2,1.35-0.6,1.71-1.22C80.13,163.09,80.23,162.63,80.23,162.18z"/>
</g>
<g>
	<path class="st4" d="M139.91,27.62c-0.04-0.54-0.14-1.06-0.31-1.56c-1.16-3.48-5.37-5.14-8.79-4.82c-2.13,0.2-4.21,1.26-5.43,3.03
		c-0.91,1.33-1.29,2.93-1.8,4.46c-0.74,2.22-2.12,3.39-3.56,5.12c-1.18,1.42-2.49,4.01-0.8,5.57c1.72,1.58,3.9-0.05,5.39-1.11
		c2.34-1.67,5.06-2.6,7.83-3.26c2.19-0.52,4.75-1.32,6.24-3.17C139.63,30.71,140.02,29.12,139.91,27.62z"/>
</g>
<g>
	<path class="st4" d="M58.79,83.39c-0.06-1.5-0.68-2.94-1.71-4.03c-1-1.05-2.33-1.78-3.76-2.06c-1.12-0.22-2.29-0.16-3.37,0.19
		c-0.96,0.19-1.81,0.68-2.51,1.35c-0.7,0.68-1.24,1.54-1.45,2.49c-0.22,1.02,0,2.02,0.36,2.98c0.35,0.94,0.81,1.85,1.03,2.83
		c0.42,1.87-0.33,3.97,0.71,5.71c0.24,0.4,0.58,0.78,0.99,1c0.4,0.21,0.85,0.28,1.29,0.24c0.92-0.08,1.78-0.52,2.55-1
		c1.71-1.07,3.17-2.54,4.23-4.25c0.53-0.85,0.95-1.77,1.24-2.73C58.65,85.24,58.83,84.31,58.79,83.39z"/>
</g>
<g>
	<path class="st4" d="M70.57,15.44c-0.05,0.01-0.1,0.01-0.14,0.02c-0.62,0.09-1.23,0.22-1.83,0.41c-0.37,0.19-0.74,0.41-1.07,0.66
		c-0.94,0.71-1.58,1.85-1.57,3.04c0.01,1.41,0.89,2.63,1.57,3.8c0.21,0.35,0.39,0.71,0.52,1.09c0.14,0.38,0.24,0.77,0.34,1.16
		c0.21,0.85,0.36,1.71,0.58,2.56c0.2,0.79,0.43,1.6,0.87,2.3c0.38,0.62,0.94,1.09,1.66,1.24c0.9,0.18,1.85-0.09,2.65-0.51
		c0.34-0.27,0.65-0.56,0.95-0.87c0.65-0.68,1.22-1.45,1.7-2.26c0.56-0.95,0.96-1.99,1.3-3.03c0.43-1.32,0.76-2.69,0.87-4.08
		c0.1-1.3,0.03-2.66-0.47-3.87c-0.38-0.91-0.98-1.77-1.87-2.25c-1.68-0.91-3.75-0.33-5.41,0.33C71,15.25,70.79,15.34,70.57,15.44z"
		/>
</g>
<g>
	<path class="st4" d="M38.48,48.16c-0.58-4.66-2.26-10.02-5.93-13.2c-1.36-1.17-3.18-1.93-4.94-1.62
		c-4.71,0.83-8.29,6.86-7.99,11.39c0.09,1.33,0.67,2.69,1.8,3.4c1.39,0.87,3.07,0.93,4.58,1.49c1.67,0.62,2.73,1.95,3.93,3.2
		c1.18,1.24,2.72,2.34,4.46,2.55c1.09,0.13,2.27-0.16,3.05-0.94C38.97,52.9,38.72,50.13,38.48,48.16z"/>
</g>
<g>
	<path class="st4" d="M185.97,110.82c-0.05-1.22-0.31-2.45-0.94-3.51c-0.61-1.03-1.55-1.77-2.59-2.32c-1.83-0.98-3.99-1.3-6.05-1.2
		c-3.34,0.16-8.31,0.92-9.93,4.35c-0.24,0.52-0.37,1.08-0.36,1.65c0.02,0.54,0.15,1.07,0.36,1.57c0.45,1.07,1.19,1.99,1.96,2.86
		c0.78,0.88,1.63,1.72,2.32,2.68c0.84,1.17,1.5,2.46,2.07,3.78c0.53,1.21,0.98,2.5,1.88,3.5c0.84,0.93,2.02,1.54,3.26,1.73
		c1.23,0.19,2.5-0.04,3.58-0.66c0.97-0.56,1.63-1.47,2.11-2.46c0.5-1.04,0.81-2.15,1.09-3.26c0.35-1.35,0.68-2.7,0.91-4.08
		C185.88,113.91,186.03,112.36,185.97,110.82z"/>
</g>
<g>
	<path class="st4" d="M38.92,212.59c-0.17-0.44-0.42-0.85-0.76-1.19c-1.16-1.15-2.96-1.18-4.48-0.94c-2.92,0.46-6.4,0.46-8.88,2.25
		c-2.84,2.05-2.05,5.95-1.36,8.93c0.36,1.55,0.99,3.26,2.45,3.88c2.4,1.02,5.43-1.19,7.26-2.53c2.53-1.85,5.61-5,6.01-8.27
		C39.25,214,39.18,213.25,38.92,212.59z"/>
</g>
<g>
	<path class="st4" d="M111.81,229.52c0.96-1.7-0.06-3.67-1.24-4.94c-0.57-0.62-1.21-1.16-1.89-1.65c-0.67-0.48-1.37-0.9-2.1-1.26
		c-0.62-0.31-1.26-0.58-1.94-0.75c-2.65-0.68-5.35,0.28-7.56,1.74c-1.5,0.99-2.99,2.01-4.36,3.17c-0.99,0.85-3.5,2.46-2.73,4.08
		c0.23,0.49,0.76,0.79,1.3,0.88c2.55,0.46,4.76-1,6.99-2c2.85-1.27,5.46-0.98,8.25,0.35c0.93,0.44,1.83,1.07,2.84,1.32
		c0.56,0.14,1.17,0.12,1.67-0.16C111.38,230.1,111.63,229.83,111.81,229.52z"/>
</g>
<g>
	<path class="st4" d="M192.72,209.15c-0.03-2.24-2.16-3.6-4.05-4.19c-0.91-0.29-1.86-0.46-2.81-0.55c-0.93-0.09-1.87-0.11-2.81-0.05
		c-0.79,0.05-1.58,0.15-2.35,0.37c-3.01,0.84-5.14,3.34-6.5,6.05c-0.92,1.84-1.82,3.7-2.5,5.64c-0.5,1.41-2.06,4.44-0.37,5.6
		c0.51,0.35,1.21,0.34,1.79,0.13c2.79-1,4.15-3.72,5.78-5.98c2.09-2.89,4.86-4.09,8.38-4.37c1.17-0.09,2.43,0.01,3.57-0.32
		c0.63-0.18,1.23-0.55,1.56-1.11C192.63,209.98,192.73,209.56,192.72,209.15z"/>
</g>
<g>
	<path class="st4" d="M187.55,173.51c-0.04-0.49-0.13-0.97-0.28-1.42c-1.06-3.17-4.89-4.68-8.01-4.39
		c-1.94,0.18-3.84,1.15-4.94,2.75c-0.83,1.21-1.17,2.67-1.64,4.06c-0.68,2.02-1.93,3.09-3.24,4.66c-1.08,1.29-2.27,3.65-0.72,5.07
		c1.57,1.44,3.55-0.04,4.91-1.01c2.13-1.52,4.61-2.36,7.13-2.96c2-0.48,4.32-1.2,5.68-2.89
		C187.29,176.32,187.65,174.88,187.55,173.51z"/>
</g>
<g>
	<path class="st4" d="M200.81,72.9c-0.05-1.37-0.61-2.67-1.56-3.67c-0.91-0.96-2.12-1.62-3.42-1.87c-1.02-0.2-2.09-0.15-3.07,0.17
		c-0.87,0.17-1.64,0.62-2.28,1.23c-0.63,0.62-1.13,1.4-1.32,2.27c-0.2,0.93,0,1.84,0.32,2.72c0.32,0.86,0.74,1.68,0.94,2.58
		c0.39,1.7-0.3,3.61,0.65,5.2c0.22,0.37,0.52,0.71,0.9,0.91c0.36,0.19,0.77,0.25,1.18,0.22c0.84-0.07,1.62-0.48,2.32-0.91
		c1.55-0.97,2.89-2.31,3.85-3.87c0.48-0.78,0.87-1.61,1.13-2.49C200.69,74.59,200.84,73.74,200.81,72.9z"/>
</g>
<g>
	<path class="st4" d="M128.93,162.17c-0.04,0.01-0.09,0.01-0.13,0.02c-0.56,0.08-1.12,0.2-1.66,0.37c-0.34,0.18-0.67,0.37-0.98,0.6
		c-0.86,0.65-1.44,1.68-1.43,2.77c0.01,1.29,0.81,2.39,1.43,3.46c0.19,0.32,0.35,0.64,0.48,0.99c0.12,0.35,0.22,0.7,0.31,1.06
		c0.19,0.77,0.33,1.56,0.52,2.33c0.18,0.72,0.39,1.46,0.79,2.09c0.35,0.56,0.86,0.99,1.51,1.13c0.82,0.17,1.68-0.08,2.42-0.46
		c0.31-0.24,0.6-0.51,0.86-0.8c0.59-0.62,1.11-1.32,1.55-2.06c0.51-0.87,0.87-1.81,1.19-2.76c0.4-1.2,0.69-2.45,0.79-3.72
		c0.1-1.18,0.03-2.42-0.43-3.52c-0.35-0.83-0.89-1.61-1.7-2.05c-1.53-0.83-3.41-0.3-4.93,0.3
		C129.32,162,129.12,162.08,128.93,162.17z"/>
</g>
<g>
	<path class="st4" d="M194.5,25.48c-0.52-4.24-2.06-9.13-5.4-12.02c-1.24-1.07-2.89-1.76-4.5-1.48c-4.29,0.76-7.55,6.24-7.28,10.37
		c0.08,1.21,0.61,2.45,1.64,3.09c1.26,0.79,2.8,0.85,4.17,1.35c1.52,0.56,2.49,1.77,3.57,2.91c1.07,1.13,2.48,2.13,4.06,2.32
		c0.99,0.12,2.07-0.14,2.78-0.85C194.95,29.79,194.72,27.27,194.5,25.48z"/>
</g>
<g>
	<rect x="209.96" class="st0" width="211.62" height="258.33"/>
	<rect x="209.96" y="234.06" class="st1" width="211.62" height="0.77"/>
	<rect x="209.96" y="97.7" class="st1" width="211.62" height="0.77"/>
	<g class="st2">
		<g>
			<path class="st3" d="M220.04,18.01c0,0.43-0.35,0.77-0.77,0.77c-0.43,0-0.77-0.35-0.77-0.77c0-0.43,0.35-0.77,0.77-0.77
				C219.7,17.24,220.04,17.58,220.04,18.01z"/>
			<path class="st3" d="M220.04,50.29c0,0.43-0.35,0.77-0.77,0.77c-0.43,0-0.77-0.35-0.77-0.77c0-0.43,0.35-0.77,0.77-0.77
				C219.7,49.52,220.04,49.86,220.04,50.29z"/>
			<path class="st3" d="M220.04,82.57c0,0.43-0.35,0.77-0.77,0.77c-0.43,0-0.77-0.35-0.77-0.77s0.35-0.77,0.77-0.77
				C219.7,81.8,220.04,82.14,220.04,82.57z"/>
			<path class="st3" d="M220.04,114.85c0,0.43-0.35,0.77-0.77,0.77c-0.43,0-0.77-0.35-0.77-0.77c0-0.43,0.35-0.77,0.77-0.77
				C219.7,114.08,220.04,114.42,220.04,114.85z"/>
			<path class="st3" d="M220.04,147.13c0,0.43-0.35,0.77-0.77,0.77c-0.43,0-0.77-0.35-0.77-0.77c0-0.43,0.35-0.77,0.77-0.77
				C219.7,146.36,220.04,146.7,220.04,147.13z"/>
			<path class="st3" d="M220.04,179.41c0,0.43-0.35,0.77-0.77,0.77c-0.43,0-0.77-0.35-0.77-0.77c0-0.43,0.35-0.77,0.77-0.77
				C219.7,178.64,220.04,178.98,220.04,179.41z"/>
			<path class="st3" d="M220.04,211.69c0,0.43-0.35,0.77-0.77,0.77c-0.43,0-0.77-0.35-0.77-0.77c0-0.43,0.35-0.77,0.77-0.77
				C219.7,210.92,220.04,211.26,220.04,211.69z"/>
			<path class="st3" d="M220.04,243.97c0,0.43-0.35,0.77-0.77,0.77c-0.43,0-0.77-0.35-0.77-0.77c0-0.43,0.35-0.77,0.77-0.77
				C219.7,243.2,220.04,243.54,220.04,243.97z"/>
		</g>
		<g>
			<path class="st3" d="M241.49,8.49c0,0.43-0.35,0.77-0.77,0.77c-0.43,0-0.77-0.35-0.77-0.77c0-0.43,0.35-0.77,0.77-0.77
				C241.14,7.72,241.49,8.06,241.49,8.49z"/>
			<circle class="st3" cx="240.71" cy="40.77" r="0.77"/>
			<path class="st3" d="M241.49,73.05c0,0.43-0.35,0.77-0.77,0.77c-0.43,0-0.77-0.35-0.77-0.77c0-0.43,0.35-0.77,0.77-0.77
				C241.14,72.28,241.49,72.62,241.49,73.05z"/>
			<circle class="st3" cx="240.71" cy="105.33" r="0.77"/>
			<path class="st3" d="M241.49,137.61c0,0.43-0.35,0.77-0.77,0.77c-0.43,0-0.77-0.35-0.77-0.77c0-0.43,0.35-0.77,0.77-0.77
				C241.14,136.84,241.49,137.18,241.49,137.61z"/>
			<circle class="st3" cx="240.71" cy="169.89" r="0.77"/>
			<circle class="st3" cx="240.71" cy="202.17" r="0.77"/>
			<circle class="st3" cx="240.71" cy="234.45" r="0.77"/>
		</g>
		<g>
			<path class="st3" d="M262.93,20.39c0,0.43-0.35,0.77-0.77,0.77s-0.77-0.35-0.77-0.77c0-0.43,0.35-0.77,0.77-0.77
				S262.93,19.96,262.93,20.39z"/>
			<circle class="st3" cx="262.16" cy="52.67" r="0.77"/>
			<circle class="st3" cx="262.16" cy="84.95" r="0.77"/>
			<circle class="st3" cx="262.16" cy="117.23" r="0.77"/>
			<circle class="st3" cx="262.16" cy="149.51" r="0.77"/>
			<path class="st3" d="M262.93,181.79c0,0.43-0.35,0.77-0.77,0.77s-0.77-0.35-0.77-0.77c0-0.43,0.35-0.77,0.77-0.77
				S262.93,181.36,262.93,181.79z"/>
			<circle class="st3" cx="262.16" cy="214.07" r="0.77"/>
			<circle class="st3" cx="262.16" cy="246.35" r="0.77"/>
		</g>
		<g>
			<circle class="st3" cx="283.6" cy="10.87" r="0.77"/>
			<path class="st3" d="M284.38,43.15c0,0.43-0.35,0.77-0.77,0.77c-0.43,0-0.77-0.35-0.77-0.77c0-0.43,0.35-0.77,0.77-0.77
				C284.03,42.38,284.38,42.72,284.38,43.15z"/>
			<circle class="st3" cx="283.6" cy="75.43" r="0.77"/>
			<path class="st3" d="M284.38,107.71c0,0.43-0.35,0.77-0.77,0.77c-0.43,0-0.77-0.35-0.77-0.77c0-0.43,0.35-0.77,0.77-0.77
				C284.03,106.94,284.38,107.28,284.38,107.71z"/>
			<circle class="st3" cx="283.6" cy="139.99" r="0.77"/>
			<circle class="st3" cx="283.6" cy="172.27" r="0.77"/>
			<circle class="st3" cx="283.6" cy="204.55" r="0.77"/>
			<circle class="st3" cx="283.6" cy="236.83" r="0.77"/>
		</g>
		<g>
			<path class="st3" d="M305.82,22.77c0,0.43-0.35,0.77-0.77,0.77c-0.43,0-0.77-0.35-0.77-0.77c0-0.43,0.35-0.77,0.77-0.77
				C305.47,22,305.82,22.34,305.82,22.77z"/>
			<path class="st3" d="M305.82,55.05c0,0.43-0.35,0.77-0.77,0.77c-0.43,0-0.77-0.35-0.77-0.77c0-0.43,0.35-0.77,0.77-0.77
				C305.47,54.28,305.82,54.62,305.82,55.05z"/>
			<path class="st3" d="M305.82,87.33c0,0.43-0.35,0.77-0.77,0.77c-0.43,0-0.77-0.35-0.77-0.77c0-0.43,0.35-0.77,0.77-0.77
				C305.47,86.56,305.82,86.9,305.82,87.33z"/>
			<path class="st3" d="M305.82,119.61c0,0.43-0.35,0.77-0.77,0.77c-0.43,0-0.77-0.35-0.77-0.77s0.35-0.77,0.77-0.77
				C305.47,118.84,305.82,119.18,305.82,119.61z"/>
			<path class="st3" d="M305.82,151.89c0,0.43-0.35,0.77-0.77,0.77c-0.43,0-0.77-0.35-0.77-0.77c0-0.43,0.35-0.77,0.77-0.77
				C305.47,151.12,305.82,151.46,305.82,151.89z"/>
			<path class="st3" d="M305.82,184.17c0,0.43-0.35,0.77-0.77,0.77c-0.43,0-0.77-0.35-0.77-0.77c0-0.43,0.35-0.77,0.77-0.77
				C305.47,183.4,305.82,183.74,305.82,184.17z"/>
			<path class="st3" d="M305.82,216.45c0,0.43-0.35,0.77-0.77,0.77c-0.43,0-0.77-0.35-0.77-0.77c0-0.43,0.35-0.77,0.77-0.77
				C305.47,215.68,305.82,216.02,305.82,216.45z"/>
			<path class="st3" d="M305.82,248.73c0,0.43-0.35,0.77-0.77,0.77c-0.43,0-0.77-0.35-0.77-0.77c0-0.43,0.35-0.77,0.77-0.77
				C305.47,247.96,305.82,248.3,305.82,248.73z"/>
		</g>
		<g>
			<circle class="st3" cx="326.49" cy="13.25" r="0.77"/>
			<circle class="st3" cx="326.49" cy="45.53" r="0.77"/>
			<circle class="st3" cx="326.49" cy="77.81" r="0.77"/>
			<circle class="st3" cx="326.49" cy="110.09" r="0.77"/>
			<circle class="st3" cx="326.49" cy="142.37" r="0.77"/>
			<path class="st3" d="M327.26,174.65c0,0.43-0.35,0.77-0.77,0.77s-0.77-0.35-0.77-0.77c0-0.43,0.35-0.77,0.77-0.77
				S327.26,174.22,327.26,174.65z"/>
			<circle class="st3" cx="326.49" cy="206.93" r="0.77"/>
			<path class="st3" d="M327.26,239.21c0,0.43-0.35,0.77-0.77,0.77s-0.77-0.35-0.77-0.77c0-0.43,0.35-0.77,0.77-0.77
				S327.26,238.78,327.26,239.21z"/>
		</g>
		<g>
			<circle class="st3" cx="347.93" cy="25.15" r="0.77"/>
			<circle class="st3" cx="347.93" cy="57.43" r="0.77"/>
			<circle class="st3" cx="347.93" cy="89.71" r="0.77"/>
			<path class="st3" d="M348.71,121.99c0,0.43-0.35,0.77-0.77,0.77s-0.77-0.35-0.77-0.77c0-0.43,0.35-0.77,0.77-0.77
				S348.71,121.56,348.71,121.99z"/>
			<path class="st3" d="M348.71,154.27c0,0.43-0.35,0.77-0.77,0.77s-0.77-0.35-0.77-0.77c0-0.43,0.35-0.77,0.77-0.77
				S348.71,153.84,348.71,154.27z"/>
			<path class="st3" d="M348.71,186.55c0,0.43-0.35,0.77-0.77,0.77s-0.77-0.35-0.77-0.77c0-0.43,0.35-0.77,0.77-0.77
				S348.71,186.12,348.71,186.55z"/>
			<circle class="st3" cx="347.93" cy="218.83" r="0.77"/>
			<circle class="st3" cx="347.93" cy="251.11" r="0.77"/>
		</g>
		<g>
			<path class="st3" d="M370.15,15.63c0,0.43-0.35,0.77-0.77,0.77c-0.43,0-0.77-0.35-0.77-0.77c0-0.43,0.35-0.77,0.77-0.77
				C369.81,14.86,370.15,15.2,370.15,15.63z"/>
			<path class="st3" d="M370.15,47.91c0,0.43-0.35,0.77-0.77,0.77c-0.43,0-0.77-0.35-0.77-0.77s0.35-0.77,0.77-0.77
				C369.81,47.14,370.15,47.48,370.15,47.91z"/>
			<path class="st3" d="M370.15,80.19c0,0.43-0.35,0.77-0.77,0.77c-0.43,0-0.77-0.35-0.77-0.77c0-0.43,0.35-0.77,0.77-0.77
				C369.81,79.42,370.15,79.76,370.15,80.19z"/>
			<path class="st3" d="M370.15,112.47c0,0.43-0.35,0.77-0.77,0.77c-0.43,0-0.77-0.35-0.77-0.77s0.35-0.77,0.77-0.77
				C369.81,111.7,370.15,112.04,370.15,112.47z"/>
			<path class="st3" d="M370.15,144.75c0,0.43-0.35,0.77-0.77,0.77c-0.43,0-0.77-0.35-0.77-0.77c0-0.43,0.35-0.77,0.77-0.77
				C369.81,143.98,370.15,144.32,370.15,144.75z"/>
			<path class="st3" d="M370.15,177.03c0,0.43-0.35,0.77-0.77,0.77c-0.43,0-0.77-0.35-0.77-0.77c0-0.43,0.35-0.77,0.77-0.77
				C369.81,176.26,370.15,176.6,370.15,177.03z"/>
			<path class="st3" d="M370.15,209.31c0,0.43-0.35,0.77-0.77,0.77c-0.43,0-0.77-0.35-0.77-0.77c0-0.43,0.35-0.77,0.77-0.77
				C369.81,208.54,370.15,208.88,370.15,209.31z"/>
			<path class="st3" d="M370.15,241.59c0,0.43-0.35,0.77-0.77,0.77c-0.43,0-0.77-0.35-0.77-0.77s0.35-0.77,0.77-0.77
				C369.81,240.82,370.15,241.16,370.15,241.59z"/>
		</g>
		<g>
			<circle class="st3" cx="390.82" cy="6.11" r="0.77"/>
			<circle class="st3" cx="390.82" cy="38.39" r="0.77"/>
			<circle class="st3" cx="390.82" cy="70.67" r="0.77"/>
			<circle class="st3" cx="390.82" cy="102.95" r="0.77"/>
			<circle class="st3" cx="390.82" cy="135.23" r="0.77"/>
			<path class="st3" d="M391.6,167.51c0,0.43-0.35,0.77-0.77,0.77c-0.43,0-0.77-0.35-0.77-0.77c0-0.43,0.35-0.77,0.77-0.77
				C391.25,166.74,391.6,167.08,391.6,167.51z"/>
			<path class="st3" d="M391.6,199.79c0,0.43-0.35,0.77-0.77,0.77c-0.43,0-0.77-0.35-0.77-0.77c0-0.43,0.35-0.77,0.77-0.77
				C391.25,199.02,391.6,199.36,391.6,199.79z"/>
			<path class="st3" d="M391.6,232.07c0,0.43-0.35,0.77-0.77,0.77c-0.43,0-0.77-0.35-0.77-0.77c0-0.43,0.35-0.77,0.77-0.77
				C391.25,231.3,391.6,231.64,391.6,232.07z"/>
		</g>
		<g>
			<path class="st3" d="M413.04,27.53c0,0.43-0.35,0.77-0.77,0.77s-0.77-0.35-0.77-0.77s0.35-0.77,0.77-0.77
				S413.04,27.1,413.04,27.53z"/>
			<path class="st3" d="M413.04,59.81c0,0.43-0.35,0.77-0.77,0.77s-0.77-0.35-0.77-0.77s0.35-0.77,0.77-0.77
				S413.04,59.38,413.04,59.81z"/>
			<circle class="st3" cx="412.27" cy="92.09" r="0.77"/>
			<circle class="st3" cx="412.27" cy="124.37" r="0.77"/>
			<circle class="st3" cx="412.27" cy="156.65" r="0.77"/>
			<circle class="st3" cx="412.27" cy="188.93" r="0.77"/>
			<circle class="st3" cx="412.27" cy="221.21" r="0.77"/>
			<path class="st3" d="M413.04,253.49c0,0.43-0.35,0.77-0.77,0.77s-0.77-0.35-0.77-0.77c0-0.43,0.35-0.77,0.77-0.77
				S413.04,253.06,413.04,253.49z"/>
		</g>
	</g>
</g>
<g>
	<path class="st4" d="M243.95,140.85c0.55-0.75,0.98-1.61,1.11-2.54c0.13-0.91-0.08-1.79-0.44-2.62c-0.63-1.45-1.76-2.68-3.04-3.6
		c-2.07-1.5-5.39-3.41-7.99-2.14c-0.39,0.19-0.74,0.47-1,0.81c-0.25,0.33-0.42,0.71-0.53,1.1c-0.24,0.85-0.24,1.76-0.2,2.64
		c0.04,0.9,0.15,1.8,0.11,2.7c-0.05,1.1-0.28,2.18-0.57,3.24c-0.26,0.97-0.61,1.96-0.55,2.98c0.05,0.96,0.47,1.88,1.12,2.58
		c0.65,0.7,1.51,1.17,2.45,1.31c0.84,0.13,1.67-0.1,2.43-0.46c0.79-0.38,1.51-0.9,2.21-1.42c0.85-0.64,1.69-1.29,2.48-2
		C242.43,142.65,243.26,141.8,243.95,140.85z"/>
</g>
<g>
	<path class="st4" d="M324.48,120.81c-0.19-0.49-0.46-0.93-0.83-1.3c-1.28-1.27-3.25-1.3-4.92-1.04c-3.2,0.5-7.03,0.51-9.76,2.47
		c-3.13,2.25-2.25,6.54-1.49,9.81c0.39,1.7,1.08,3.58,2.69,4.26c2.63,1.12,5.97-1.31,7.98-2.78c2.78-2.03,6.17-5.49,6.6-9.08
		C324.84,122.37,324.76,121.54,324.48,120.81z"/>
</g>
<g>
	<path class="st4" d="M336.95,76.41c-0.03-2.46-2.37-3.95-4.45-4.61c-1-0.32-2.05-0.5-3.09-0.61c-1.02-0.1-2.06-0.12-3.08-0.05
		c-0.87,0.06-1.74,0.17-2.58,0.4c-3.31,0.92-5.65,3.67-7.14,6.64c-1.01,2.02-1.99,4.06-2.75,6.19c-0.55,1.54-2.27,4.88-0.41,6.15
		c0.56,0.39,1.32,0.38,1.97,0.15c3.07-1.1,4.56-4.09,6.35-6.56c2.3-3.17,5.33-4.5,9.2-4.8c1.29-0.1,2.67,0.02,3.92-0.35
		c0.69-0.2,1.35-0.6,1.71-1.22C336.85,77.32,336.96,76.86,336.95,76.41z"/>
</g>
<g>
	<path class="st4" d="M290.19,162.18c-0.03-2.46-2.37-3.95-4.45-4.61c-1-0.32-2.05-0.5-3.09-0.61c-1.02-0.1-2.06-0.12-3.08-0.05
		c-0.87,0.06-1.74,0.17-2.58,0.4c-3.31,0.92-5.65,3.67-7.14,6.64c-1.01,2.02-1.99,4.06-2.75,6.19c-0.55,1.54-2.27,4.88-0.41,6.15
		c0.56,0.39,1.32,0.38,1.97,0.15c3.07-1.1,4.56-4.09,6.35-6.56c2.3-3.17,5.33-4.5,9.2-4.8c1.29-0.1,2.67,0.02,3.92-0.35
		c0.69-0.2,1.35-0.6,1.71-1.22C290.09,163.09,290.19,162.63,290.19,162.18z"/>
</g>
<g>
	<path class="st4" d="M359.45,27.23c-0.04-0.54-0.14-1.06-0.31-1.56c-1.16-3.48-5.37-5.14-8.79-4.82c-2.13,0.2-4.21,1.26-5.43,3.03
		c-0.91,1.33-1.29,2.93-1.8,4.46c-0.74,2.22-2.12,3.39-3.56,5.12c-1.18,1.42-2.49,4.01-0.8,5.57c1.72,1.58,3.9-0.05,5.39-1.11
		c2.34-1.67,5.06-2.6,7.83-3.26c2.19-0.52,4.75-1.32,6.24-3.17C359.16,30.32,359.56,28.74,359.45,27.23z"/>
</g>
<g>
	<path class="st4" d="M263.04,87.45c-0.06-1.5-0.68-2.94-1.71-4.03c-1-1.05-2.33-1.78-3.76-2.06c-1.12-0.22-2.29-0.16-3.37,0.19
		c-0.96,0.19-1.81,0.68-2.51,1.35c-0.7,0.68-1.24,1.54-1.45,2.49c-0.22,1.02,0,2.02,0.36,2.98c0.35,0.94,0.81,1.85,1.03,2.83
		c0.42,1.87-0.33,3.97,0.71,5.71c0.24,0.4,0.58,0.78,0.99,1c0.4,0.21,0.85,0.28,1.29,0.24c0.92-0.08,1.78-0.52,2.55-1
		c1.71-1.07,3.17-2.54,4.23-4.25c0.53-0.85,0.95-1.77,1.24-2.73C262.9,89.31,263.07,88.37,263.04,87.45z"/>
</g>
<g>
	<path class="st4" d="M280.53,15.44c-0.05,0.01-0.1,0.01-0.14,0.02c-0.62,0.09-1.23,0.22-1.83,0.41c-0.37,0.19-0.74,0.41-1.07,0.66
		c-0.94,0.71-1.58,1.85-1.57,3.04c0.01,1.41,0.89,2.63,1.57,3.8c0.21,0.35,0.39,0.71,0.52,1.09c0.14,0.38,0.24,0.77,0.34,1.16
		c0.21,0.85,0.36,1.71,0.58,2.56c0.2,0.79,0.43,1.6,0.87,2.3c0.38,0.62,0.94,1.09,1.66,1.24c0.9,0.18,1.85-0.09,2.65-0.51
		c0.34-0.27,0.65-0.56,0.95-0.87c0.65-0.68,1.22-1.45,1.7-2.26c0.56-0.95,0.96-1.99,1.3-3.03c0.43-1.32,0.76-2.69,0.87-4.08
		c0.1-1.3,0.03-2.66-0.47-3.87c-0.38-0.91-0.98-1.77-1.87-2.25c-1.68-0.91-3.75-0.33-5.41,0.33
		C280.96,15.25,280.74,15.34,280.53,15.44z"/>
</g>
<g>
	<path class="st4" d="M244.28,49.91c-0.57-4.66-2.26-10.02-5.94-13.2c-1.36-1.17-3.18-1.93-4.94-1.62
		c-4.71,0.83-8.29,6.86-7.99,11.39c0.09,1.33,0.67,2.69,1.8,3.4c1.39,0.87,3.07,0.93,4.58,1.49c1.67,0.62,2.73,1.95,3.93,3.2
		c1.18,1.24,2.72,2.34,4.46,2.55c1.09,0.13,2.27-0.16,3.05-0.94C244.77,54.64,244.52,51.87,244.28,49.91z"/>
</g>
<g>
	<path class="st4" d="M395.92,110.82c-0.05-1.22-0.31-2.45-0.94-3.51c-0.61-1.03-1.55-1.77-2.59-2.32c-1.83-0.98-3.99-1.3-6.05-1.2
		c-3.34,0.16-8.31,0.92-9.93,4.35c-0.24,0.52-0.37,1.08-0.36,1.65c0.02,0.54,0.15,1.07,0.36,1.57c0.45,1.07,1.19,1.99,1.96,2.86
		c0.78,0.88,1.63,1.72,2.32,2.68c0.84,1.17,1.5,2.46,2.07,3.78c0.53,1.21,0.98,2.5,1.88,3.5c0.84,0.93,2.02,1.54,3.26,1.73
		c1.23,0.19,2.5-0.04,3.58-0.66c0.97-0.56,1.63-1.47,2.11-2.46c0.5-1.04,0.81-2.15,1.09-3.26c0.35-1.35,0.68-2.7,0.91-4.08
		C395.84,113.91,395.99,112.36,395.92,110.82z"/>
</g>
<g>
	<path class="st4" d="M248.88,212.59c-0.17-0.44-0.42-0.85-0.76-1.19c-1.16-1.15-2.96-1.18-4.48-0.94c-2.92,0.46-6.4,0.46-8.88,2.25
		c-2.84,2.05-2.05,5.95-1.36,8.93c0.36,1.55,0.99,3.26,2.45,3.88c2.4,1.02,5.43-1.19,7.26-2.53c2.53-1.85,5.61-5,6.01-8.27
		C249.21,214,249.13,213.25,248.88,212.59z"/>
</g>
<g>
	<path class="st4" d="M321.76,229.52c0.96-1.7-0.06-3.67-1.24-4.94c-0.57-0.62-1.21-1.16-1.89-1.65c-0.66-0.48-1.37-0.9-2.1-1.26
		c-0.62-0.31-1.27-0.58-1.94-0.75c-2.65-0.68-5.35,0.28-7.56,1.74c-1.5,0.99-2.99,2.01-4.36,3.17c-0.99,0.85-3.5,2.46-2.73,4.08
		c0.23,0.49,0.76,0.79,1.3,0.88c2.55,0.46,4.76-1,6.99-2c2.85-1.27,5.46-0.98,8.25,0.35c0.93,0.44,1.83,1.07,2.84,1.32
		c0.55,0.14,1.17,0.12,1.67-0.16C321.33,230.1,321.59,229.83,321.76,229.52z"/>
</g>
<g>
	<path class="st4" d="M402.68,209.15c-0.03-2.24-2.16-3.6-4.05-4.19c-0.91-0.29-1.86-0.46-2.81-0.55c-0.93-0.09-1.87-0.11-2.81-0.05
		c-0.79,0.05-1.58,0.15-2.35,0.37c-3.01,0.84-5.14,3.34-6.5,6.05c-0.92,1.84-1.82,3.7-2.5,5.64c-0.5,1.41-2.06,4.44-0.37,5.6
		c0.51,0.35,1.21,0.34,1.79,0.13c2.79-1,4.15-3.72,5.78-5.98c2.09-2.89,4.86-4.09,8.38-4.37c1.17-0.09,2.43,0.01,3.57-0.32
		c0.63-0.18,1.23-0.55,1.56-1.11C402.59,209.98,402.68,209.56,402.68,209.15z"/>
</g>
<g>
	<path class="st4" d="M397.51,173.51c-0.04-0.49-0.13-0.97-0.28-1.42c-1.06-3.17-4.89-4.68-8.01-4.39
		c-1.94,0.18-3.84,1.15-4.94,2.75c-0.83,1.21-1.17,2.67-1.64,4.06c-0.68,2.02-1.93,3.09-3.24,4.66c-1.08,1.29-2.27,3.65-0.72,5.07
		c1.57,1.44,3.55-0.04,4.91-1.01c2.13-1.52,4.61-2.36,7.13-2.96c2-0.48,4.32-1.2,5.68-2.89
		C397.25,176.32,397.61,174.88,397.51,173.51z"/>
</g>
<g>
	<path class="st4" d="M410.77,72.9c-0.05-1.37-0.61-2.67-1.56-3.67c-0.91-0.96-2.12-1.62-3.42-1.87c-1.02-0.2-2.09-0.15-3.07,0.17
		c-0.87,0.17-1.64,0.62-2.28,1.23c-0.63,0.62-1.13,1.4-1.32,2.27c-0.2,0.93,0,1.84,0.32,2.72c0.32,0.86,0.74,1.68,0.94,2.58
		c0.39,1.7-0.3,3.61,0.65,5.2c0.22,0.37,0.52,0.71,0.91,0.91c0.36,0.19,0.77,0.25,1.18,0.22c0.84-0.07,1.62-0.48,2.32-0.91
		c1.55-0.97,2.89-2.31,3.85-3.87c0.48-0.78,0.87-1.61,1.13-2.49C410.65,74.59,410.8,73.74,410.77,72.9z"/>
</g>
<g>
	<path class="st4" d="M338.88,162.17c-0.04,0.01-0.09,0.01-0.13,0.02c-0.56,0.08-1.12,0.2-1.66,0.37c-0.34,0.18-0.67,0.37-0.98,0.6
		c-0.86,0.65-1.44,1.68-1.43,2.77c0.01,1.29,0.81,2.39,1.43,3.46c0.19,0.32,0.35,0.64,0.48,0.99c0.12,0.35,0.22,0.7,0.31,1.06
		c0.19,0.77,0.33,1.56,0.52,2.33c0.18,0.72,0.39,1.46,0.79,2.09c0.35,0.56,0.86,0.99,1.51,1.13c0.82,0.17,1.68-0.08,2.42-0.46
		c0.31-0.24,0.6-0.51,0.86-0.8c0.59-0.62,1.11-1.32,1.55-2.06c0.51-0.87,0.87-1.81,1.19-2.76c0.4-1.2,0.69-2.45,0.79-3.72
		c0.1-1.18,0.03-2.42-0.43-3.52c-0.35-0.83-0.89-1.61-1.7-2.05c-1.53-0.83-3.41-0.3-4.93,0.3
		C339.28,162,339.08,162.08,338.88,162.17z"/>
</g>
<g>
	<path class="st4" d="M404.46,25.48c-0.52-4.24-2.06-9.13-5.4-12.02c-1.24-1.07-2.89-1.76-4.5-1.48c-4.29,0.76-7.55,6.24-7.28,10.37
		c0.08,1.21,0.61,2.45,1.64,3.09c1.26,0.79,2.8,0.85,4.17,1.35c1.52,0.56,2.49,1.77,3.57,2.91c1.07,1.13,2.48,2.13,4.06,2.32
		c1,0.12,2.07-0.14,2.78-0.85C404.9,29.79,404.68,27.27,404.46,25.48z"/>
</g>
</svg>
