<?xml version="1.0" encoding="utf-8"?>
<!-- Generator: Adobe Illustrator 24.0.2, SVG Export Plug-In . SVG Version: 6.00 Build 0)  -->
<svg version="1.1" id="Layer_1" xmlns="http://www.w3.org/2000/svg" xmlns:xlink="http://www.w3.org/1999/xlink" x="0px" y="0px"
	 viewBox="0 0 421.58 258.33" style="enable-background:new 0 0 421.58 258.33;" xml:space="preserve">
<style type="text/css">
	.st0{fill:#F4F4F4;}
	.st1{fill:#EDEDED;}
	.st2{fill:#E5E5E5;}
</style>
<g>
	<rect class="st0" width="211.62" height="258.33"/>
	<rect y="234.06" class="st1" width="211.62" height="0.77"/>
	<rect y="97.7" class="st1" width="211.62" height="0.77"/>
	<g>
		<g>
			<circle class="st2" cx="9.31" cy="18.01" r="0.77"/>
			<path class="st2" d="M10.08,50.29c0,0.43-0.35,0.77-0.77,0.77c-0.43,0-0.77-0.35-0.77-0.77c0-0.43,0.35-0.77,0.77-0.77
				C9.74,49.52,10.08,49.86,10.08,50.29z"/>
			<path class="st2" d="M10.08,82.57c0,0.43-0.35,0.77-0.77,0.77c-0.43,0-0.77-0.35-0.77-0.77s0.35-0.77,0.77-0.77
				C9.74,81.8,10.08,82.14,10.08,82.57z"/>
			<path class="st2" d="M10.08,114.85c0,0.43-0.35,0.77-0.77,0.77c-0.43,0-0.77-0.35-0.77-0.77c0-0.43,0.35-0.77,0.77-0.77
				C9.74,114.08,10.08,114.42,10.08,114.85z"/>
			<circle class="st2" cx="9.31" cy="147.13" r="0.77"/>
			<path class="st2" d="M10.08,179.41c0,0.43-0.35,0.77-0.77,0.77c-0.43,0-0.77-0.35-0.77-0.77c0-0.43,0.35-0.77,0.77-0.77
				C9.74,178.64,10.08,178.98,10.08,179.41z"/>
			<circle class="st2" cx="9.31" cy="211.69" r="0.77"/>
			<circle class="st2" cx="9.31" cy="243.97" r="0.77"/>
		</g>
		<g>
			<path class="st2" d="M31.53,8.49c0,0.43-0.35,0.77-0.77,0.77c-0.43,0-0.77-0.35-0.77-0.77c0-0.43,0.35-0.77,0.77-0.77
				C31.18,7.72,31.53,8.06,31.53,8.49z"/>
			<circle class="st2" cx="30.75" cy="40.77" r="0.77"/>
			<path class="st2" d="M31.53,73.05c0,0.43-0.35,0.77-0.77,0.77c-0.43,0-0.77-0.35-0.77-0.77c0-0.43,0.35-0.77,0.77-0.77
				C31.18,72.28,31.53,72.62,31.53,73.05z"/>
			<circle class="st2" cx="30.75" cy="105.33" r="0.77"/>
			<path class="st2" d="M31.53,137.61c0,0.43-0.35,0.77-0.77,0.77c-0.43,0-0.77-0.35-0.77-0.77c0-0.43,0.35-0.77,0.77-0.77
				C31.18,136.84,31.53,137.18,31.53,137.61z"/>
			<circle class="st2" cx="30.75" cy="169.89" r="0.77"/>
			<circle class="st2" cx="30.75" cy="202.17" r="0.77"/>
			<circle class="st2" cx="30.75" cy="234.45" r="0.77"/>
		</g>
		<g>
			<path class="st2" d="M52.97,20.39c0,0.43-0.35,0.77-0.77,0.77s-0.77-0.35-0.77-0.77c0-0.43,0.35-0.77,0.77-0.77
				S52.97,19.96,52.97,20.39z"/>
			<path class="st2" d="M52.97,52.67c0,0.43-0.35,0.77-0.77,0.77s-0.77-0.35-0.77-0.77s0.35-0.77,0.77-0.77S52.97,52.24,52.97,52.67
				z"/>
			<path class="st2" d="M52.97,84.95c0,0.43-0.35,0.77-0.77,0.77s-0.77-0.35-0.77-0.77s0.35-0.77,0.77-0.77S52.97,84.52,52.97,84.95
				z"/>
			<path class="st2" d="M52.97,117.23c0,0.43-0.35,0.77-0.77,0.77s-0.77-0.35-0.77-0.77c0-0.43,0.35-0.77,0.77-0.77
				S52.97,116.8,52.97,117.23z"/>
			<path class="st2" d="M52.97,149.51c0,0.43-0.35,0.77-0.77,0.77s-0.77-0.35-0.77-0.77c0-0.43,0.35-0.77,0.77-0.77
				S52.97,149.08,52.97,149.51z"/>
			<path class="st2" d="M52.97,181.79c0,0.43-0.35,0.77-0.77,0.77s-0.77-0.35-0.77-0.77c0-0.43,0.35-0.77,0.77-0.77
				S52.97,181.36,52.97,181.79z"/>
			<path class="st2" d="M52.97,214.07c0,0.43-0.35,0.77-0.77,0.77s-0.77-0.35-0.77-0.77c0-0.43,0.35-0.77,0.77-0.77
				S52.97,213.64,52.97,214.07z"/>
			<path class="st2" d="M52.97,246.35c0,0.43-0.35,0.77-0.77,0.77s-0.77-0.35-0.77-0.77c0-0.43,0.35-0.77,0.77-0.77
				S52.97,245.92,52.97,246.35z"/>
		</g>
		<g>
			<circle class="st2" cx="73.64" cy="10.87" r="0.77"/>
			<path class="st2" d="M74.42,43.15c0,0.43-0.35,0.77-0.77,0.77c-0.43,0-0.77-0.35-0.77-0.77c0-0.43,0.35-0.77,0.77-0.77
				C74.07,42.38,74.42,42.72,74.42,43.15z"/>
			<circle class="st2" cx="73.64" cy="75.43" r="0.77"/>
			<path class="st2" d="M74.42,107.71c0,0.43-0.35,0.77-0.77,0.77c-0.43,0-0.77-0.35-0.77-0.77c0-0.43,0.35-0.77,0.77-0.77
				C74.07,106.94,74.42,107.28,74.42,107.71z"/>
			<circle class="st2" cx="73.64" cy="139.99" r="0.77"/>
			<circle class="st2" cx="73.64" cy="172.27" r="0.77"/>
			<circle class="st2" cx="73.64" cy="204.55" r="0.77"/>
			<circle class="st2" cx="73.64" cy="236.83" r="0.77"/>
		</g>
		<g>
			<circle class="st2" cx="95.09" cy="22.77" r="0.77"/>
			<circle class="st2" cx="95.09" cy="55.05" r="0.77"/>
			<path class="st2" d="M95.86,87.33c0,0.43-0.35,0.77-0.77,0.77s-0.77-0.35-0.77-0.77c0-0.43,0.35-0.77,0.77-0.77
				S95.86,86.9,95.86,87.33z"/>
			<circle class="st2" cx="95.09" cy="119.61" r="0.77"/>
			<circle class="st2" cx="95.09" cy="151.89" r="0.77"/>
			<circle class="st2" cx="95.09" cy="184.17" r="0.77"/>
			<path class="st2" d="M95.86,216.45c0,0.43-0.35,0.77-0.77,0.77s-0.77-0.35-0.77-0.77c0-0.43,0.35-0.77,0.77-0.77
				S95.86,216.02,95.86,216.45z"/>
			<circle class="st2" cx="95.09" cy="248.73" r="0.77"/>
		</g>
		<g>
			<circle class="st2" cx="116.53" cy="13.25" r="0.77"/>
			<circle class="st2" cx="116.53" cy="45.53" r="0.77"/>
			<circle class="st2" cx="116.53" cy="77.81" r="0.77"/>
			<circle class="st2" cx="116.53" cy="110.09" r="0.77"/>
			<circle class="st2" cx="116.53" cy="142.37" r="0.77"/>
			<path class="st2" d="M117.31,174.65c0,0.43-0.35,0.77-0.77,0.77s-0.77-0.35-0.77-0.77c0-0.43,0.35-0.77,0.77-0.77
				S117.31,174.22,117.31,174.65z"/>
			<circle class="st2" cx="116.53" cy="206.93" r="0.77"/>
			<path class="st2" d="M117.31,239.21c0,0.43-0.35,0.77-0.77,0.77s-0.77-0.35-0.77-0.77c0-0.43,0.35-0.77,0.77-0.77
				S117.31,238.78,117.31,239.21z"/>
		</g>
		<g>
			<circle class="st2" cx="137.98" cy="25.15" r="0.77"/>
			<circle class="st2" cx="137.98" cy="57.43" r="0.77"/>
			<circle class="st2" cx="137.98" cy="89.71" r="0.77"/>
			<path class="st2" d="M138.75,121.99c0,0.43-0.35,0.77-0.77,0.77c-0.43,0-0.77-0.35-0.77-0.77c0-0.43,0.35-0.77,0.77-0.77
				C138.4,121.22,138.75,121.56,138.75,121.99z"/>
			<path class="st2" d="M138.75,154.27c0,0.43-0.35,0.77-0.77,0.77c-0.43,0-0.77-0.35-0.77-0.77c0-0.43,0.35-0.77,0.77-0.77
				C138.4,153.5,138.75,153.84,138.75,154.27z"/>
			<path class="st2" d="M138.75,186.55c0,0.43-0.35,0.77-0.77,0.77c-0.43,0-0.77-0.35-0.77-0.77c0-0.43,0.35-0.77,0.77-0.77
				C138.4,185.78,138.75,186.12,138.75,186.55z"/>
			<circle class="st2" cx="137.98" cy="218.83" r="0.77"/>
			<circle class="st2" cx="137.98" cy="251.11" r="0.77"/>
		</g>
		<g>
			<path class="st2" d="M160.2,15.63c0,0.43-0.35,0.77-0.77,0.77c-0.43,0-0.77-0.35-0.77-0.77c0-0.43,0.35-0.77,0.77-0.77
				C159.85,14.86,160.2,15.2,160.2,15.63z"/>
			<circle class="st2" cx="159.42" cy="47.91" r="0.77"/>
			<circle class="st2" cx="159.42" cy="80.19" r="0.77"/>
			<circle class="st2" cx="159.42" cy="112.47" r="0.77"/>
			<path class="st2" d="M160.2,144.75c0,0.43-0.35,0.77-0.77,0.77c-0.43,0-0.77-0.35-0.77-0.77c0-0.43,0.35-0.77,0.77-0.77
				C159.85,143.98,160.2,144.32,160.2,144.75z"/>
			<circle class="st2" cx="159.42" cy="177.03" r="0.77"/>
			<path class="st2" d="M160.2,209.31c0,0.43-0.35,0.77-0.77,0.77c-0.43,0-0.77-0.35-0.77-0.77c0-0.43,0.35-0.77,0.77-0.77
				C159.85,208.54,160.2,208.88,160.2,209.31z"/>
			<circle class="st2" cx="159.42" cy="241.59" r="0.77"/>
		</g>
		<g>
			<path class="st2" d="M181.64,6.11c0,0.43-0.35,0.77-0.77,0.77c-0.43,0-0.77-0.35-0.77-0.77c0-0.43,0.35-0.77,0.77-0.77
				C181.29,5.34,181.64,5.68,181.64,6.11z"/>
			<path class="st2" d="M181.64,38.39c0,0.43-0.35,0.77-0.77,0.77c-0.43,0-0.77-0.35-0.77-0.77c0-0.43,0.35-0.77,0.77-0.77
				C181.29,37.62,181.64,37.96,181.64,38.39z"/>
			<path class="st2" d="M181.64,70.67c0,0.43-0.35,0.77-0.77,0.77c-0.43,0-0.77-0.35-0.77-0.77s0.35-0.77,0.77-0.77
				C181.29,69.9,181.64,70.24,181.64,70.67z"/>
			<path class="st2" d="M181.64,102.95c0,0.43-0.35,0.77-0.77,0.77c-0.43,0-0.77-0.35-0.77-0.77s0.35-0.77,0.77-0.77
				C181.29,102.18,181.64,102.52,181.64,102.95z"/>
			<path class="st2" d="M181.64,135.23c0,0.43-0.35,0.77-0.77,0.77c-0.43,0-0.77-0.35-0.77-0.77c0-0.43,0.35-0.77,0.77-0.77
				C181.29,134.46,181.64,134.8,181.64,135.23z"/>
			<path class="st2" d="M181.64,167.51c0,0.43-0.35,0.77-0.77,0.77c-0.43,0-0.77-0.35-0.77-0.77c0-0.43,0.35-0.77,0.77-0.77
				C181.29,166.74,181.64,167.08,181.64,167.51z"/>
			<path class="st2" d="M181.64,199.79c0,0.43-0.35,0.77-0.77,0.77c-0.43,0-0.77-0.35-0.77-0.77c0-0.43,0.35-0.77,0.77-0.77
				C181.29,199.02,181.64,199.36,181.64,199.79z"/>
			<path class="st2" d="M181.64,232.07c0,0.43-0.35,0.77-0.77,0.77c-0.43,0-0.77-0.35-0.77-0.77c0-0.43,0.35-0.77,0.77-0.77
				C181.29,231.3,181.64,231.64,181.64,232.07z"/>
		</g>
		<g>
			<path class="st2" d="M203.08,27.53c0,0.43-0.35,0.77-0.77,0.77c-0.43,0-0.77-0.35-0.77-0.77s0.35-0.77,0.77-0.77
				C202.74,26.76,203.08,27.1,203.08,27.53z"/>
			<path class="st2" d="M203.08,59.81c0,0.43-0.35,0.77-0.77,0.77c-0.43,0-0.77-0.35-0.77-0.77s0.35-0.77,0.77-0.77
				C202.74,59.04,203.08,59.38,203.08,59.81z"/>
			<circle class="st2" cx="202.31" cy="92.09" r="0.77"/>
			<circle class="st2" cx="202.31" cy="124.37" r="0.77"/>
			<circle class="st2" cx="202.31" cy="156.65" r="0.77"/>
			<circle class="st2" cx="202.31" cy="188.93" r="0.77"/>
			<circle class="st2" cx="202.31" cy="221.21" r="0.77"/>
			<path class="st2" d="M203.08,253.49c0,0.43-0.35,0.77-0.77,0.77c-0.43,0-0.77-0.35-0.77-0.77c0-0.43,0.35-0.77,0.77-0.77
				C202.74,252.72,203.08,253.06,203.08,253.49z"/>
		</g>
	</g>
</g>
<g>
	<rect x="209.96" class="st0" width="211.62" height="258.33"/>
	<rect x="209.96" y="234.06" class="st1" width="211.62" height="0.77"/>
	<rect x="209.96" y="97.7" class="st1" width="211.62" height="0.77"/>
	<g>
		<g>
			<path class="st2" d="M220.04,18.01c0,0.43-0.35,0.77-0.77,0.77c-0.43,0-0.77-0.35-0.77-0.77c0-0.43,0.35-0.77,0.77-0.77
				C219.7,17.24,220.04,17.58,220.04,18.01z"/>
			<path class="st2" d="M220.04,50.29c0,0.43-0.35,0.77-0.77,0.77c-0.43,0-0.77-0.35-0.77-0.77c0-0.43,0.35-0.77,0.77-0.77
				C219.7,49.52,220.04,49.86,220.04,50.29z"/>
			<path class="st2" d="M220.04,82.57c0,0.43-0.35,0.77-0.77,0.77c-0.43,0-0.77-0.35-0.77-0.77s0.35-0.77,0.77-0.77
				C219.7,81.8,220.04,82.14,220.04,82.57z"/>
			<path class="st2" d="M220.04,114.85c0,0.43-0.35,0.77-0.77,0.77c-0.43,0-0.77-0.35-0.77-0.77c0-0.43,0.35-0.77,0.77-0.77
				C219.7,114.08,220.04,114.42,220.04,114.85z"/>
			<path class="st2" d="M220.04,147.13c0,0.43-0.35,0.77-0.77,0.77c-0.43,0-0.77-0.35-0.77-0.77c0-0.43,0.35-0.77,0.77-0.77
				C219.7,146.36,220.04,146.7,220.04,147.13z"/>
			<path class="st2" d="M220.04,179.41c0,0.43-0.35,0.77-0.77,0.77c-0.43,0-0.77-0.35-0.77-0.77c0-0.43,0.35-0.77,0.77-0.77
				C219.7,178.64,220.04,178.98,220.04,179.41z"/>
			<path class="st2" d="M220.04,211.69c0,0.43-0.35,0.77-0.77,0.77c-0.43,0-0.77-0.35-0.77-0.77c0-0.43,0.35-0.77,0.77-0.77
				C219.7,210.92,220.04,211.26,220.04,211.69z"/>
			<path class="st2" d="M220.04,243.97c0,0.43-0.35,0.77-0.77,0.77c-0.43,0-0.77-0.35-0.77-0.77c0-0.43,0.35-0.77,0.77-0.77
				C219.7,243.2,220.04,243.54,220.04,243.97z"/>
		</g>
		<g>
			<path class="st2" d="M241.49,8.49c0,0.43-0.35,0.77-0.77,0.77c-0.43,0-0.77-0.35-0.77-0.77c0-0.43,0.35-0.77,0.77-0.77
				C241.14,7.72,241.49,8.06,241.49,8.49z"/>
			<circle class="st2" cx="240.71" cy="40.77" r="0.77"/>
			<path class="st2" d="M241.49,73.05c0,0.43-0.35,0.77-0.77,0.77c-0.43,0-0.77-0.35-0.77-0.77c0-0.43,0.35-0.77,0.77-0.77
				C241.14,72.28,241.49,72.62,241.49,73.05z"/>
			<circle class="st2" cx="240.71" cy="105.33" r="0.77"/>
			<path class="st2" d="M241.49,137.61c0,0.43-0.35,0.77-0.77,0.77c-0.43,0-0.77-0.35-0.77-0.77c0-0.43,0.35-0.77,0.77-0.77
				C241.14,136.84,241.49,137.18,241.49,137.61z"/>
			<circle class="st2" cx="240.71" cy="169.89" r="0.77"/>
			<circle class="st2" cx="240.71" cy="202.17" r="0.77"/>
			<circle class="st2" cx="240.71" cy="234.45" r="0.77"/>
		</g>
		<g>
			<path class="st2" d="M262.93,20.39c0,0.43-0.35,0.77-0.77,0.77s-0.77-0.35-0.77-0.77c0-0.43,0.35-0.77,0.77-0.77
				S262.93,19.96,262.93,20.39z"/>
			<circle class="st2" cx="262.16" cy="52.67" r="0.77"/>
			<circle class="st2" cx="262.16" cy="84.95" r="0.77"/>
			<circle class="st2" cx="262.16" cy="117.23" r="0.77"/>
			<circle class="st2" cx="262.16" cy="149.51" r="0.77"/>
			<path class="st2" d="M262.93,181.79c0,0.43-0.35,0.77-0.77,0.77s-0.77-0.35-0.77-0.77c0-0.43,0.35-0.77,0.77-0.77
				S262.93,181.36,262.93,181.79z"/>
			<circle class="st2" cx="262.16" cy="214.07" r="0.77"/>
			<circle class="st2" cx="262.16" cy="246.35" r="0.77"/>
		</g>
		<g>
			<circle class="st2" cx="283.6" cy="10.87" r="0.77"/>
			<path class="st2" d="M284.38,43.15c0,0.43-0.35,0.77-0.77,0.77c-0.43,0-0.77-0.35-0.77-0.77c0-0.43,0.35-0.77,0.77-0.77
				C284.03,42.38,284.38,42.72,284.38,43.15z"/>
			<circle class="st2" cx="283.6" cy="75.43" r="0.77"/>
			<path class="st2" d="M284.38,107.71c0,0.43-0.35,0.77-0.77,0.77c-0.43,0-0.77-0.35-0.77-0.77c0-0.43,0.35-0.77,0.77-0.77
				C284.03,106.94,284.38,107.28,284.38,107.71z"/>
			<circle class="st2" cx="283.6" cy="139.99" r="0.77"/>
			<circle class="st2" cx="283.6" cy="172.27" r="0.77"/>
			<circle class="st2" cx="283.6" cy="204.55" r="0.77"/>
			<circle class="st2" cx="283.6" cy="236.83" r="0.77"/>
		</g>
		<g>
			<path class="st2" d="M305.82,22.77c0,0.43-0.35,0.77-0.77,0.77c-0.43,0-0.77-0.35-0.77-0.77c0-0.43,0.35-0.77,0.77-0.77
				C305.47,22,305.82,22.34,305.82,22.77z"/>
			<path class="st2" d="M305.82,55.05c0,0.43-0.35,0.77-0.77,0.77c-0.43,0-0.77-0.35-0.77-0.77c0-0.43,0.35-0.77,0.77-0.77
				C305.47,54.28,305.82,54.62,305.82,55.05z"/>
			<path class="st2" d="M305.82,87.33c0,0.43-0.35,0.77-0.77,0.77c-0.43,0-0.77-0.35-0.77-0.77c0-0.43,0.35-0.77,0.77-0.77
				C305.47,86.56,305.82,86.9,305.82,87.33z"/>
			<path class="st2" d="M305.82,119.61c0,0.43-0.35,0.77-0.77,0.77c-0.43,0-0.77-0.35-0.77-0.77s0.35-0.77,0.77-0.77
				C305.47,118.84,305.82,119.18,305.82,119.61z"/>
			<path class="st2" d="M305.82,151.89c0,0.43-0.35,0.77-0.77,0.77c-0.43,0-0.77-0.35-0.77-0.77c0-0.43,0.35-0.77,0.77-0.77
				C305.47,151.12,305.82,151.46,305.82,151.89z"/>
			<path class="st2" d="M305.82,184.17c0,0.43-0.35,0.77-0.77,0.77c-0.43,0-0.77-0.35-0.77-0.77c0-0.43,0.35-0.77,0.77-0.77
				C305.47,183.4,305.82,183.74,305.82,184.17z"/>
			<path class="st2" d="M305.82,216.45c0,0.43-0.35,0.77-0.77,0.77c-0.43,0-0.77-0.35-0.77-0.77c0-0.43,0.35-0.77,0.77-0.77
				C305.47,215.68,305.82,216.02,305.82,216.45z"/>
			<path class="st2" d="M305.82,248.73c0,0.43-0.35,0.77-0.77,0.77c-0.43,0-0.77-0.35-0.77-0.77c0-0.43,0.35-0.77,0.77-0.77
				C305.47,247.96,305.82,248.3,305.82,248.73z"/>
		</g>
		<g>
			<circle class="st2" cx="326.49" cy="13.25" r="0.77"/>
			<circle class="st2" cx="326.49" cy="45.53" r="0.77"/>
			<circle class="st2" cx="326.49" cy="77.81" r="0.77"/>
			<circle class="st2" cx="326.49" cy="110.09" r="0.77"/>
			<circle class="st2" cx="326.49" cy="142.37" r="0.77"/>
			<path class="st2" d="M327.26,174.65c0,0.43-0.35,0.77-0.77,0.77s-0.77-0.35-0.77-0.77c0-0.43,0.35-0.77,0.77-0.77
				S327.26,174.22,327.26,174.65z"/>
			<circle class="st2" cx="326.49" cy="206.93" r="0.77"/>
			<path class="st2" d="M327.26,239.21c0,0.43-0.35,0.77-0.77,0.77s-0.77-0.35-0.77-0.77c0-0.43,0.35-0.77,0.77-0.77
				S327.26,238.78,327.26,239.21z"/>
		</g>
		<g>
			<circle class="st2" cx="347.93" cy="25.15" r="0.77"/>
			<circle class="st2" cx="347.93" cy="57.43" r="0.77"/>
			<circle class="st2" cx="347.93" cy="89.71" r="0.77"/>
			<path class="st2" d="M348.71,121.99c0,0.43-0.35,0.77-0.77,0.77s-0.77-0.35-0.77-0.77c0-0.43,0.35-0.77,0.77-0.77
				S348.71,121.56,348.71,121.99z"/>
			<path class="st2" d="M348.71,154.27c0,0.43-0.35,0.77-0.77,0.77s-0.77-0.35-0.77-0.77c0-0.43,0.35-0.77,0.77-0.77
				S348.71,153.84,348.71,154.27z"/>
			<path class="st2" d="M348.71,186.55c0,0.43-0.35,0.77-0.77,0.77s-0.77-0.35-0.77-0.77c0-0.43,0.35-0.77,0.77-0.77
				S348.71,186.12,348.71,186.55z"/>
			<circle class="st2" cx="347.93" cy="218.83" r="0.77"/>
			<circle class="st2" cx="347.93" cy="251.11" r="0.77"/>
		</g>
		<g>
			<path class="st2" d="M370.15,15.63c0,0.43-0.35,0.77-0.77,0.77c-0.43,0-0.77-0.35-0.77-0.77c0-0.43,0.35-0.77,0.77-0.77
				C369.81,14.86,370.15,15.2,370.15,15.63z"/>
			<path class="st2" d="M370.15,47.91c0,0.43-0.35,0.77-0.77,0.77c-0.43,0-0.77-0.35-0.77-0.77s0.35-0.77,0.77-0.77
				C369.81,47.14,370.15,47.48,370.15,47.91z"/>
			<path class="st2" d="M370.15,80.19c0,0.43-0.35,0.77-0.77,0.77c-0.43,0-0.77-0.35-0.77-0.77c0-0.43,0.35-0.77,0.77-0.77
				C369.81,79.42,370.15,79.76,370.15,80.19z"/>
			<path class="st2" d="M370.15,112.47c0,0.43-0.35,0.77-0.77,0.77c-0.43,0-0.77-0.35-0.77-0.77s0.35-0.77,0.77-0.77
				C369.81,111.7,370.15,112.04,370.15,112.47z"/>
			<path class="st2" d="M370.15,144.75c0,0.43-0.35,0.77-0.77,0.77c-0.43,0-0.77-0.35-0.77-0.77c0-0.43,0.35-0.77,0.77-0.77
				C369.81,143.98,370.15,144.32,370.15,144.75z"/>
			<path class="st2" d="M370.15,177.03c0,0.43-0.35,0.77-0.77,0.77c-0.43,0-0.77-0.35-0.77-0.77c0-0.43,0.35-0.77,0.77-0.77
				C369.81,176.26,370.15,176.6,370.15,177.03z"/>
			<path class="st2" d="M370.15,209.31c0,0.43-0.35,0.77-0.77,0.77c-0.43,0-0.77-0.35-0.77-0.77c0-0.43,0.35-0.77,0.77-0.77
				C369.81,208.54,370.15,208.88,370.15,209.31z"/>
			<path class="st2" d="M370.15,241.59c0,0.43-0.35,0.77-0.77,0.77c-0.43,0-0.77-0.35-0.77-0.77s0.35-0.77,0.77-0.77
				C369.81,240.82,370.15,241.16,370.15,241.59z"/>
		</g>
		<g>
			<circle class="st2" cx="390.82" cy="6.11" r="0.77"/>
			<circle class="st2" cx="390.82" cy="38.39" r="0.77"/>
			<circle class="st2" cx="390.82" cy="70.67" r="0.77"/>
			<circle class="st2" cx="390.82" cy="102.95" r="0.77"/>
			<circle class="st2" cx="390.82" cy="135.23" r="0.77"/>
			<path class="st2" d="M391.6,167.51c0,0.43-0.35,0.77-0.77,0.77c-0.43,0-0.77-0.35-0.77-0.77c0-0.43,0.35-0.77,0.77-0.77
				C391.25,166.74,391.6,167.08,391.6,167.51z"/>
			<path class="st2" d="M391.6,199.79c0,0.43-0.35,0.77-0.77,0.77c-0.43,0-0.77-0.35-0.77-0.77c0-0.43,0.35-0.77,0.77-0.77
				C391.25,199.02,391.6,199.36,391.6,199.79z"/>
			<path class="st2" d="M391.6,232.07c0,0.43-0.35,0.77-0.77,0.77c-0.43,0-0.77-0.35-0.77-0.77c0-0.43,0.35-0.77,0.77-0.77
				C391.25,231.3,391.6,231.64,391.6,232.07z"/>
		</g>
		<g>
			<path class="st2" d="M413.04,27.53c0,0.43-0.35,0.77-0.77,0.77s-0.77-0.35-0.77-0.77s0.35-0.77,0.77-0.77
				S413.04,27.1,413.04,27.53z"/>
			<path class="st2" d="M413.04,59.81c0,0.43-0.35,0.77-0.77,0.77s-0.77-0.35-0.77-0.77s0.35-0.77,0.77-0.77
				S413.04,59.38,413.04,59.81z"/>
			<circle class="st2" cx="412.27" cy="92.09" r="0.77"/>
			<circle class="st2" cx="412.27" cy="124.37" r="0.77"/>
			<circle class="st2" cx="412.27" cy="156.65" r="0.77"/>
			<circle class="st2" cx="412.27" cy="188.93" r="0.77"/>
			<circle class="st2" cx="412.27" cy="221.21" r="0.77"/>
			<path class="st2" d="M413.04,253.49c0,0.43-0.35,0.77-0.77,0.77s-0.77-0.35-0.77-0.77c0-0.43,0.35-0.77,0.77-0.77
				S413.04,253.06,413.04,253.49z"/>
		</g>
	</g>
</g>
</svg>
